<svg xmlns="http://www.w3.org/2000/svg" viewBox="0 0 150 150">
<!-- SVG created with Arrow, by QuiverAI (https://quiver.ai) -->
  <style type="text/css">.cls-0 {fill:#2ABADB;}
.cls-1 {fill:#0D93B7;}
.cls-2 {fill:#2D2417;}
.cls-3 {fill:#A35730;}
.cls-4 {fill:#743F22;}
.cls-5 {fill:#718444;}
.cls-6 {fill:#576338;}
.cls-7 {fill:url(#SVGID_1_);}
.cls-8 {fill:#FFFFFF;}
.cls-9 {fill:none;}</style>
  <path class="cls-0" d="m94.3 16.7 51.2-14.9 0.2 0.2-12.7 53.4-9.2-17.8-45.6 54.5-4.2 1.9-9.7-22.7-6.5-0.9 36.8-32.5 16-14.1-16.4-6.8 0.1-0.3z"/>
  <path class="cls-1" d="m74 74.8 71.7-73-12.7 53.6-9.2-17.8-45.6 54.5-4.1-0.8z"/>
  <path class="cls-2" d="m84.2 90.3-3.2 2.7-45.9 32.8-5.8 5.4 12.8 3.3 17.6 1 6.3 6.1 10.6-8.6 0.3-0.3 0.2-1.8 0.7-0.2 11-8.4-4.4-11.2 3.2-6.5-3.4-14.5z"/>
  <path class="cls-2" d="m45.3 61.8-5.3 3.7-14.5-2.3-6.4 10-0.3 2.4-2 0.4-7.8 10.7 6.6 7.6 3.6 28.5 1.4-2.1 0.3 0.2 24.2-36 10.8-16.5 4.3-3.8-14.9-2.8z"/>
  <path class="cls-3" d="m57.8 70.4 4.5 4.7 0.3 12-57.9 61.4c-1-0.3-0.8-2.1 0.2-3.7l52.9-74.4z"/>
  <path class="cls-4" d="m19.5 78.8-6.5 7.8 5.6 6.3 5.5 1.5-0.2-9.5 2.2-3.3z"/>
  <path class="cls-3" d="m21.9 76.4 6.7 2.7 6.8-3.9 2.5-6.9-11-1.6-4.7 7.6z"/>
  <path class="cls-3" d="m28.7 83.4 6.9 9.7 3.9-6.2-3.3-8.3-5.7 3.2z"/>
  <path class="cls-4" d="m27.3 87.1 0.4 17.8 5.6-9z"/>
  <path class="cls-3" d="m30.4 91.3-0.4 2.9 2.6 2.8 0.7-1.1z"/>
  <path class="cls-4" d="m19.2 96.4 2.2 18.3 3-5-0.3-11.8z"/>
  <path class="cls-4" d="m15.8 86.4 3.5 6.6 4.8 1.4-0.1-9.9 2.2-2.6-6.3-0.6z"/>
  <path class="cls-3" d="m19 78.8 7.1 2.8-1.1 0.5-5.1-0.7-4.1 5z"/>
  <path class="cls-3" d="m24.4 77.2 0.6-2.8 3.2-5.1 8.9 0.9-1.7 5-6.8 3.9z"/>
  <path class="cls-5" d="m40.5 70.2 0.7-1.7 5-3.3 7 1.3-11.4 17.2-3.4-7.7 0.7-2 6.2-1.4 1.4-0.6-0.3-4-2.4 1.8z"/>
  <path class="cls-4" d="m36.9 129.7 5.9 1.6 14.1 0.8-3.4-4.9-12.6 0.4-4 2.1z"/>
  <path class="cls-5" d="m44.4 124.1 8.6-0.2 2.6-1-8-0.9z"/>
  <path class="cls-3" d="m56.8 126 4.7 6.7 4.7 4.6 7.4-6-5-7-6.2-0.4z"/>
  <path class="cls-4" d="m58.6 128.6 7.7 5.7 4.2-3.4-2.1-6.6-6-0.4z"/>
  <path class="cls-6" d="m51.5 119.3 15.6 1.7 4.5-4.2-10.1-4.2z"/>
  <path class="cls-5" d="m54.5 117.5s2.9 0.4 3.8 0c0.9-0.5 4.1-2.6 4.9-2.7 0.7-0.2 3.2-0.5 3.2-0.5l-4.9-1.7-7 4.9z"/>
  <path class="cls-5" d="m64.5 110 8.7 3.9c2.2-5.4 6.2-12.3 7.3-13.5l1 3.7-2.4 4.3 2 1.2 2.9-5.6-1.9-7.9-17.6 13.8z"/>
  <path class="cls-6" d="m70.8 122.1 4.7 5.9 9.2-7-2.9-7.1-4.2-2.3s-2 5-2.1 6l-4.7 4.5z"/>
  <path class="cls-5" d="m78.2 111.8s1.8 2 2.3 3.6c0.6 1.6 1.5 5.1 1.5 5.1s-2.6 1.8-3.4 3.3c-0.7 1.6-2.7 3.8-2.7 3.8l8.8-6.5-2.9-7.2-3.9-2.3z"/>
  <path class="cls-5" d="m80.9 105.1 1.8 1.5-1.6 3-2-1.2z"/>
  <linearGradient id="SVGID_1_" x1="34.38" x2="62.6" y1="97.16" y2="97.16" gradientUnits="userSpaceOnUse">
    <stop stop-color="#A35730" offset="0"/>
    <stop stop-color="#fff" offset=".7"/>
  </linearGradient>
  <path class="cls-7" d="m34.4 127.1 43.4-34.9-3.7-4.8-9-2.5z"/>
  <path class="cls-2" d="m62.4 86.9-57.7 61.6c1.4 0.4 3.9-1.4 3.9-1.4l69.2-54.7-4.2-5-6.5-1.5-4.7 1z"/>
  <path class="cls-4" d="m43.8 89.4s-1.6 6.2-3.3 8.6-31 43-31 43.6l-4.8 5.5 1.2 0.1 56.6-59.8-0.1-3.6-4.6-6.3-14 11.9z"/>
  <path class="cls-8" d="m76.8 80.9c0 4.5-3.5 8.4-8.4 8.4-4.2 0-8.4-3.3-8.4-8.4 0-4.5 3.6-8.3 8.4-8.3 4.5-0.1 8.4 3.5 8.4 8.3z"/>
  <path class="cls-5" d="m66.4 114.3 5.2 2.3-1.9 1.9-3.3-4.1"/>
  <path class="cls-9" d="m0 0h150v150h-150z"/>
</svg>